<svg xmlns="http://www.w3.org/2000/svg" xmlns:xlink="http://www.w3.org/1999/xlink" width="500" zoomAndPan="magnify" viewBox="0 0 375 374.999991" height="500" preserveAspectRatio="xMidYMid meet" version="1.0"><defs><clipPath id="1641c50a19"><path d="M 19.183594 50.703125 L 277 50.703125 L 277 277 L 19.183594 277 Z M 19.183594 50.703125 " clip-rule="nonzero"/></clipPath><clipPath id="59cf8b89c6"><path d="M 124 97 L 355.78125 97 L 355.78125 324 L 124 324 Z M 124 97 " clip-rule="nonzero"/></clipPath></defs><rect x="-37.5" width="450" fill="#ffffff" y="-37.499999" height="449.999989" fill-opacity="1"/><rect x="-37.5" width="450" fill="#000c44" y="-37.499999" height="449.999989" fill-opacity="1"/><g clip-path="url(#1641c50a19)"><path fill="#5271ff" d="M 28.621094 50.703125 L 267.402344 50.703125 C 272.855469 50.703125 276.828125 54.675781 276.828125 60.128906 L 276.828125 208.566406 C 276.828125 213.550781 272.855469 217.992188 267.402344 217.992188 L 162.65625 217.992188 L 162.65625 199.144531 L 257.980469 199.144531 L 257.980469 69.554688 L 38.046875 69.554688 L 38.046875 199.144531 L 44.980469 199.144531 C 49.960938 199.144531 54.40625 203.117188 54.40625 208.566406 L 54.40625 242.832031 L 93.113281 202.105469 C 94.59375 200.152344 97.554688 199.144531 100.585938 199.144531 L 124.417969 199.144531 L 124.417969 217.992188 L 104.558594 217.992188 L 51.914062 273.128906 C 47.941406 277.097656 42.019531 277.097656 38.515625 273.597656 C 36.566406 271.644531 35.554688 269.15625 35.554688 266.664062 L 35.554688 217.992188 L 28.621094 217.992188 C 23.640625 217.992188 19.195312 213.550781 19.195312 208.566406 L 19.195312 60.128906 C 19.195312 54.675781 23.640625 50.703125 28.621094 50.703125 Z M 28.621094 50.703125 " fill-opacity="1" fill-rule="nonzero"/></g><g clip-path="url(#59cf8b89c6)"><path fill="#5271ff" d="M 336.945312 116.746094 L 276.894531 116.746094 L 276.894531 97.894531 L 346.367188 97.894531 C 351.820312 97.894531 355.792969 102.339844 355.792969 107.320312 L 355.792969 255.757812 C 355.792969 260.742188 351.820312 265.183594 346.367188 265.183594 L 339.90625 265.183594 L 339.90625 313.855469 C 339.90625 316.347656 338.898438 318.835938 336.945312 320.789062 C 332.972656 324.289062 327.046875 324.289062 323.546875 320.320312 L 270.902344 265.183594 L 134.378906 265.183594 C 128.925781 265.183594 124.484375 260.742188 124.484375 255.757812 L 124.484375 107.320312 C 124.484375 102.339844 128.925781 97.894531 134.378906 97.894531 L 239.128906 97.894531 L 239.128906 116.746094 L 143.804688 116.746094 L 143.804688 246.335938 L 274.875 246.335938 C 277.835938 246.335938 280.328125 247.34375 282.347656 249.835938 L 321.058594 290.023438 L 321.058594 255.757812 C 321.058594 250.304688 325.027344 246.335938 330.480469 246.335938 L 336.945312 246.335938 Z M 336.945312 116.746094 " fill-opacity="1" fill-rule="nonzero"/></g><path fill="#5271ff" d="M 162.65625 146.027344 L 181.503906 146.027344 L 181.503906 164.878906 L 162.65625 164.878906 Z M 162.65625 146.027344 " fill-opacity="1" fill-rule="nonzero"/><path fill="#5271ff" d="M 191.46875 146.027344 L 210.316406 146.027344 L 210.316406 164.878906 L 191.46875 164.878906 Z M 191.46875 146.027344 " fill-opacity="1" fill-rule="nonzero"/><path fill="#5271ff" d="M 220.28125 146.027344 L 239.128906 146.027344 L 239.128906 164.878906 L 220.28125 164.878906 Z M 220.28125 146.027344 " fill-opacity="1" fill-rule="nonzero"/></svg>