<svg width="392.3729103745779" height="261.36000366210936" viewBox="0 0 350 233.13536399444837" class="looka-1j8o68f"><defs id="SvgjsDefs2595"></defs><g id="SvgjsG2596" featurekey="JQyOZB-0" transform="matrix(0.14240667630630202,0,0,0.14240667630630202,104.92879666184685,-0.07120333815315101)" fill="#7269ef"><g xmlns="http://www.w3.org/2000/svg"><path d="M534,247.1c11.2-11.2,17.4-26.1,17.4-42c0-32.8-26.7-59.4-59.4-59.4c-32.7,0-59.4,26.7-59.4,59.4c0,15.9,6.2,30.8,17.4,42   L652.8,450l-42,42L408,289.1c-21.5-21.5-34.8-51.3-34.8-84.1v0c0-65.6,53.2-118.8,118.8-118.8c65.6,0,118.8,53.2,118.8,118.8   c0,32.8-13.3,62.5-34.8,84L534,247.1z"></path><path d="M534,247.1l8.1,8.1c13.4-13.3,20.8-31.3,20.8-50.2c0-39.1-31.8-70.9-70.9-70.9c-39.1,0-70.8,31.8-70.9,70.9v0   c0,18.9,7.4,36.8,20.8,50.2L636.6,450l-25.7,25.7L416.1,281c-19.5-19.5-31.4-46.3-31.4-75.9c0-3-1.2-6-3.4-8.1s-5.1-3.4-8.1-3.4   c-3,0-6,1.2-8.1,3.4s-3.4,5.1-3.4,8.1v0c0,3,1.2,6,3.4,8.1s5.1,3.4,8.1,3.4c3,0,6-1.2,8.1-3.4s3.4-5.1,3.4-8.1   c0.1-59.3,48.1-107.2,107.3-107.3c59.3,0.1,107.2,48.1,107.3,107.3c0,29.7-12,56.4-31.4,75.9l8.1,8.1l8.1-8.1l-42-42L534,247.1   l8.1,8.1L534,247.1l-8.1,8.1l42,42c2.1,2.1,5.1,3.4,8.1,3.4c3,0,6-1.2,8.1-3.4c23.6-23.6,38.2-56.2,38.2-92.2   c0-72-58.3-130.3-130.3-130.3c-72,0-130.3,58.3-130.3,130.3c0,3,1.2,6,3.4,8.1s5.1,3.4,8.1,3.4c3,0,6-1.2,8.1-3.4s3.4-5.1,3.4-8.1   v0c0-3-1.2-6-3.4-8.1s-5.1-3.4-8.1-3.4c-3,0-6,1.2-8.1,3.4s-3.4,5.1-3.4,8.1c0,35.9,14.6,68.6,38.2,92.2l202.9,202.8   c4.5,4.5,11.8,4.5,16.3,0l42-42c2.1-2.1,3.4-5.1,3.4-8.1c0-3-1.2-6-3.4-8.1L458.1,239c-9.1-9.1-14-21-14.1-33.9v0   c0-26.4,21.5-47.9,47.9-47.9c26.4,0,47.9,21.5,47.9,47.9c0,12.9-4.9,24.8-14,33.9c-2.2,2.2-3.4,5.1-3.4,8.1c0,3.1,1.2,6,3.4,8.1   L534,247.1z"></path><path d="M736.8,534c11.2,11.2,26.1,17.4,42,17.4c32.7,0,59.4-26.7,59.4-59.4c0-32.8-26.6-59.4-59.3-59.4v0   c-15.9,0-30.8,6.2-42,17.4L534,652.8l-42-42L694.9,408c21.5-21.5,51.2-34.8,84-34.8l0,0c65.6,0,118.8,53.2,118.8,118.9   s-53.2,118.8-118.8,118.8c-32.8,0-62.5-13.3-84-34.8L736.8,534z"></path><path d="M736.8,534l-8.1,8.1c13.3,13.4,31.3,20.8,50.2,20.8c39.1,0,70.9-31.8,70.9-70.9c0-39.1-31.7-70.9-70.8-70.9   c-3.1,0-6,1.2-8.1,3.4c-2.2,2.2-3.4,5.1-3.4,8.1v0h11.5v-11.5c-18.9,0-36.8,7.4-50.2,20.7l0,0L534,636.6l-25.7-25.7L703,416.1   c19.5-19.4,46.2-31.4,75.9-31.4c5.3,0,10-3.7,11.2-8.9c1.2-5.2-1.3-10.6-6.1-12.9l0,0l-5.1,10.3v11.5   c59.3,0.1,107.2,48.1,107.3,107.4c-0.1,59.3-48.1,107.2-107.3,107.3c-29.7,0-56.4-12-75.9-31.4l-8.1,8.1l8.1,8.1l42-42L736.8,534   l-8.1,8.1L736.8,534l-8.1-8.1l-42,42c-4.5,4.5-4.5,11.8,0,16.3c23.5,23.6,56.2,38.2,92.2,38.2c72,0,130.3-58.3,130.3-130.3   c0-72-58.3-130.4-130.3-130.4c-5.3,0-10,3.7-11.2,8.9c-1.2,5.2,1.3,10.6,6.1,12.9l0,0l5.1-10.3v-11.5c-36,0-68.6,14.6-92.2,38.2   L483.9,602.7c-2.1,2.1-3.4,5.1-3.4,8.1c0,3,1.2,6,3.4,8.1l42,42c4.5,4.5,11.8,4.5,16.3,0L745,458.1l0,0c9.2-9.1,21-14,33.9-14   c3,0,6-1.2,8.1-3.4s3.4-5.1,3.4-8.1v0h-11.5l0,11.5c26.4,0,47.9,21.5,47.8,47.9c0,26.4-21.5,47.9-47.9,47.9   c-12.9,0-24.8-4.9-33.9-14c-2.2-2.2-5.1-3.4-8.1-3.4c-3.1,0-6,1.2-8.1,3.4L736.8,534z"></path><path d="M247.1,450c-11.3-11.2-26.1-17.4-42-17.4c-32.8,0-59.4,26.7-59.4,59.4c0,32.8,26.6,59.4,59.4,59.5v0   c15.9,0,30.8-6.2,42-17.4L450,331.2l42,42L289.1,576c-21.5,21.5-51.3,34.8-84.1,34.8l0,0c-65.7,0-118.8-53.2-118.8-118.9   c0-65.6,53.2-118.8,118.8-118.8c32.8,0,62.5,13.3,84,34.8L247.1,450z"></path><path d="M247.1,450l8.1-8.1c-13.3-13.4-31.3-20.8-50.2-20.8c-39.1,0-70.9,31.8-70.9,70.9c0,39.1,31.7,70.9,70.9,71   c3.1,0,6-1.2,8.1-3.4c2.2-2.2,3.4-5.1,3.4-8.1v0h-11.5v11.5c18.9,0,36.8-7.4,50.2-20.8l0,0L450,347.4l25.7,25.7L281,567.9l0,0   c-19.5,19.4-46.3,31.4-75.9,31.5c-5.1,0-9.5,3.3-11,8.1c-1.5,4.8,0.4,10.1,4.6,12.9l0,0l6.4-9.5v-11.5   C145.8,599.2,97.9,551.3,97.8,492c0.1-59.3,48-107.2,107.3-107.3c29.7,0,56.4,12,75.9,31.4l8.1-8.1l-8.1-8.1l-42,42L247.1,450   l8.1-8.1L247.1,450l8.1,8.1l42-42c2.2-2.2,3.4-5.1,3.4-8.1c0-3.1-1.2-6-3.4-8.1c-23.6-23.5-56.2-38.2-92.2-38.1   c-72,0-130.3,58.3-130.3,130.3c0,72,58.3,130.4,130.3,130.4c5.1,0,9.5-3.3,11-8.1c1.5-4.8-0.4-10.1-4.6-12.9l0,0l-6.4,9.5v11.5   c35.9,0,68.6-14.6,92.2-38.2l0,0l202.9-202.8c4.5-4.5,4.5-11.8,0-16.3l-42-42c-4.5-4.5-11.8-4.5-16.3,0L239,525.9l0,0   c-9.2,9.1-21,14-33.9,14.1c-3,0-6,1.2-8.1,3.4s-3.4,5.1-3.4,8.1v0h11.5l0-11.5c-26.4,0-47.9-21.5-47.9-48   c0-26.4,21.5-47.8,47.9-47.9c12.9,0,24.7,4.9,33.9,14c4.5,4.5,11.8,4.5,16.3,0L247.1,450z"></path><path d="M778.9,298.9h-11.5v0L778.9,298.9v-11.5c-49.3,0-96,17.5-133,49.3l7.5,8.7l8.1-8.1l-14.7-14.7l-8.1,8.1l8.7,7.5   c31.8-37,49.2-83.8,49.2-133.1l0,0C696.6,92.3,604.9,0.5,492,0.5c-112.9,0-204.6,91.8-204.6,204.6c0,49.3,17.6,96,49.3,133l8.7-7.5   l-8.1-8.1l-14.7,14.7l8.1,8.1l7.5-8.7c-37-31.8-83.9-49.2-133.2-49.2C92.3,287.4,0.5,379.2,0.5,492c0,112.9,91.8,204.6,204.6,204.7   c3,0,6-1.2,8.1-3.4s3.4-5.1,3.4-8.1v0h-11.5v11.5c49.3,0,96-17.5,133-49.3l-7.5-8.7l-8.1,8.1l14.7,14.7l8.1-8.1l-8.7-7.5   c-31.8,37-49.2,83.9-49.2,133.1c0,112.8,91.8,204.6,204.6,204.6c112.9,0,204.6-91.8,204.6-204.6c0-3-1.2-6-3.4-8.1   s-5.1-3.4-8.1-3.4h0v11.5h11.5c0-49.3-17.5-96-49.3-133l-8.7,7.5l8.1,8.1l14.7-14.7l-8.1-8.1l-7.5,8.7   c37,31.9,83.9,49.2,133.2,49.2l0,0c112.8,0,204.6-91.8,204.6-204.6c0-112.9-91.8-204.6-204.6-204.7c-3,0-6,1.2-8.1,3.4   s-3.4,5.1-3.4,8.1H778.9v11.5C879,310.6,960.3,391.9,960.5,492c-0.2,100.1-81.5,181.4-181.6,181.6l0,0   c-43.9,0-85.2-15.4-118.2-43.7c-4.6-3.9-11.4-3.7-15.6,0.6l-14.7,14.7c-4.2,4.2-4.5,11.1-0.6,15.6c28.3,33,43.8,74.2,43.8,118   c0,3,1.2,6,3.4,8.1s5.1,3.4,8.1,3.4h0v-11.5h-11.5C673.4,879,592.1,960.3,492,960.5c-100.1-0.2-181.5-81.5-181.6-181.6   c0-43.9,15.4-85.2,43.7-118.2c3.9-4.6,3.7-11.4-0.6-15.6l-14.7-14.7c-4.2-4.2-11.1-4.5-15.6-0.6c-33,28.3-74.2,43.8-118,43.8   c-3,0-6,1.2-8.1,3.4s-3.4,5.1-3.4,8.1v0h11.5v-11.5C105,673.4,23.7,592.1,23.5,492c0.2-100.1,81.5-181.4,181.6-181.6   c43.9,0,85.2,15.4,118.2,43.7c4.6,3.9,11.4,3.6,15.6-0.6l14.7-14.7c4.2-4.2,4.5-11.1,0.6-15.6c-28.3-32.9-43.8-74.2-43.8-118   C310.6,105,391.9,23.7,492,23.5c100.1,0.2,181.4,81.5,181.6,181.6l0,0c0,43.9-15.4,85.3-43.6,118.2c-3.9,4.6-3.7,11.4,0.6,15.6   l14.7,14.7c4.2,4.2,11.1,4.5,15.6,0.6c33-28.3,74.2-43.8,118-43.8c3,0,6-1.2,8.1-3.4s3.4-5.1,3.4-8.1v0H778.9v11.5V298.9z"></path><path d="M450,736.8c-11.2,11.2-17.4,26.1-17.4,42c0,32.7,26.7,59.4,59.4,59.4c32.7,0,59.4-26.6,59.4-59.4h0   c0-15.9-6.2-30.8-17.4-42L331.1,534l42-42L576,694.9c21.5,21.5,34.8,51.2,34.8,84l0,0c0,65.6-53.2,118.8-118.8,118.8   c-65.7,0-118.8-53.2-118.8-118.8c0-32.8,13.3-62.5,34.8-84L450,736.8z"></path><path d="M450,736.8l-8.1-8.1c-13.3,13.3-20.8,31.3-20.7,50.1c0,39.1,31.8,70.9,70.9,70.9c39.1,0,70.9-31.7,70.9-70.9   c0-3.1-1.2-6-3.4-8.1c-2.2-2.2-5.1-3.4-8.1-3.4h0v11.5h11.5c0-18.9-7.4-36.8-20.7-50.2l0,0L347.4,534l25.7-25.8L567.8,703   c19.5,19.5,31.5,46.2,31.5,75.9c0,5.4,3.7,10,8.9,11.2c5.2,1.2,10.6-1.4,12.9-6.2l0,0l-10.4-5h-11.5   c-0.1,59.3-48.1,107.2-107.3,107.3c-59.3-0.1-107.2-48.1-107.3-107.3c0-29.7,12-56.4,31.4-75.9l-8.1-8.1l-8.1,8.1l42,42L450,736.8   l-8.1-8.1L450,736.8l8.1-8.1l-42-42c-4.5-4.5-11.8-4.5-16.3,0c-23.6,23.5-38.2,56.2-38.2,92.2c0,72,58.3,130.3,130.3,130.3   c72,0,130.3-58.3,130.3-130.3c0-5.4-3.7-10-8.9-11.2c-5.2-1.2-10.6,1.4-12.9,6.2l0,0l10.4,5h11.5c0-36-14.6-68.6-38.2-92.2   L381.3,483.8c-2.2-2.2-5.1-3.4-8.1-3.4c-3.1,0-6,1.2-8.1,3.4l-42,42c-4.5,4.5-4.5,11.8,0,16.3L525.9,745l0,0   c9.1,9.2,14,21.1,14.1,33.9c0,3,1.2,6,3.4,8.1s5.1,3.4,8.1,3.4h0v-11.5l-11.5,0c0,26.4-21.5,47.8-47.9,47.9   c-26.4,0-47.9-21.5-47.9-47.9c0-12.9,4.9-24.8,14-33.9c4.5-4.5,4.5-11.8,0-16.3L450,736.8z"></path><path d="M491.9,610.8l8.1-8.1L389.3,492l102.6-102.5L594.5,492L483.8,602.7L491.9,610.8l8.1-8.1L491.9,610.8l8.1,8.1l118.8-118.8   c2.1-2.1,3.4-5.1,3.4-8.1c0-3-1.2-6-3.4-8.1L500,365c-4.5-4.5-11.8-4.5-16.3,0L364.9,483.8c-4.5,4.5-4.5,11.8,0,16.3L483.8,619   c2.1,2.1,5.1,3.4,8.1,3.4c3,0,6-1.2,8.1-3.4L491.9,610.8z"></path></g></g><g id="SvgjsG2597" featurekey="SbCDzn-0" transform="matrix(3.37316878174763,0,0,3.37316878174763,-5.397069729105764,139.82845062081108)" fill="#111111"><path d="M1.6 6.140000000000001 l3.12 0 l0 13.86 l-3.12 0 l0 -13.86 z M17.22 20 q-1.34 -2.38 -2.9 -4.7 t-3.32 -4.38 l0 9.08 l-3.08 0 l0 -13.86 l2.54 0 q0.66 0.66 1.46 1.62 t1.63 2.05 t1.65 2.26 t1.54 2.25 l0 -8.18 l3.1 0 l0 13.86 l-2.62 0 z M33.32 6.140000000000001 l0 2.66 l-4.18 0 l0 11.2 l-3.12 0 l0 -11.2 l-4.18 0 l0 -2.66 l11.48 0 z M35.32 20 l0 -13.86 l9.36 0 l0 2.62 l-6.24 0 l0 2.72 l5.54 0 l0 2.56 l-5.54 0 l0 3.34 l6.7 0 l0 2.62 l-9.82 0 z M51.5 5.98 q3.12 0 4.78 1.11 t1.66 3.45 q0 1.46 -0.67 2.37 t-1.93 1.43 q0.42 0.52 0.88 1.19 t0.91 1.4 t0.87 1.52 t0.78 1.55 l-3.5 0 q-0.38 -0.68 -0.77 -1.38 t-0.8 -1.36 t-0.81 -1.25 t-0.8 -1.07 l-1.54 0 l0 5.06 l-3.12 0 l0 -13.66 q1.02 -0.2 2.11 -0.28 t1.95 -0.08 z M51.68000000000001 8.64 q-0.34 0 -0.61 0.02 t-0.51 0.04 l0 3.76 l0.88 0 q1.76 0 2.52 -0.44 t0.76 -1.5 q0 -1.02 -0.77 -1.45 t-2.27 -0.43 z M70.04 17.32 l0 2.68 l-9.26 0 l0 -13.86 l3.12 0 l0 11.18 l6.14 0 z M72.04 6.140000000000001 l3.12 0 l0 13.86 l-3.12 0 l0 -13.86 z M87.66000000000003 20 q-1.34 -2.38 -2.9 -4.7 t-3.32 -4.38 l0 9.08 l-3.08 0 l0 -13.86 l2.54 0 q0.66 0.66 1.46 1.62 t1.63 2.05 t1.65 2.26 t1.54 2.25 l0 -8.18 l3.1 0 l0 13.86 l-2.62 0 z M101.66000000000003 20 q-0.42 -0.68 -0.99 -1.47 t-1.24 -1.58 t-1.39 -1.52 t-1.44 -1.29 l0 5.86 l-3.12 0 l0 -13.86 l3.12 0 l0 5.24 q1.22 -1.28 2.45 -2.67 t2.29 -2.57 l3.7 0 q-1.42 1.68 -2.85 3.24 t-3.01 3.14 q1.66 1.38 3.21 3.28 t2.97 4.2 l-3.7 0 z"></path></g><g id="SvgjsG2598" featurekey="m0CQaI-0" transform="matrix(1.0491133858509012,0,0,1.0491133858509012,34.05579785268294,211.27184087323357)" fill="#ffffff"><path d="M13.98 15.84 c-0.50468 1.3015 -1.3313 2.3516 -2.48 3.15 c-1.1605 0.80666 -2.4338 1.21 -3.82 1.21 c-1.8845 0 -3.4912 -0.69334 -4.82 -2.08 c-1.3067 -1.3635 -1.96 -2.9968 -1.96 -4.9 c0 -0.94666 0.17334 -1.8433 0.52 -2.69 s0.82666 -1.59 1.44 -2.23 c1.3289 -1.3867 2.9356 -2.08 4.82 -2.08 c1.3921 0 2.6588 0.39666 3.8 1.19 c1.1414 0.79344 1.9681 1.8368 2.48 3.13 l-1.54 0 c-0.73576 -1.3489 -1.8324 -2.2388 -3.29 -2.67 c-0.47334 -0.14 -1.0233 -0.21 -1.65 -0.21 s-1.2667 0.15 -1.92 0.45 s-1.2233 0.70334 -1.71 1.21 c-1.0333 1.0758 -1.55 2.3758 -1.55 3.9 c0 1.5109 0.51666 2.8042 1.55 3.88 c1.063 1.1067 2.3396 1.66 3.83 1.66 c1.0133 0 1.9433 -0.26666 2.79 -0.8 s1.5033 -1.24 1.97 -2.12 l1.54 0 z M37.456 13.16 c0 -1.5333 -0.54666 -2.8466 -1.64 -3.94 s-2.4134 -1.64 -3.96 -1.64 c-1.5333 0 -2.8466 0.54666 -3.94 1.64 s-1.64 2.4066 -1.64 3.94 c0 1.5467 0.54666 2.8666 1.64 3.96 s2.4066 1.64 3.94 1.64 c1.5467 0 2.8666 -0.54666 3.96 -1.64 s1.64 -2.4134 1.64 -3.96 z M38.856 13.16 c0 0.96 -0.18334 1.8667 -0.55 2.72 s-0.86666 1.5967 -1.5 2.23 s-1.3767 1.1333 -2.23 1.5 s-1.76 0.55 -2.72 0.55 s-1.8633 -0.18334 -2.71 -0.55 s-1.5867 -0.86666 -2.22 -1.5 s-1.1333 -1.3767 -1.5 -2.23 s-0.55 -1.76 -0.55 -2.72 s0.18334 -1.8667 0.55 -2.72 s0.86666 -1.5933 1.5 -2.22 s1.3733 -1.1233 2.22 -1.49 s1.75 -0.55 2.71 -0.55 s1.8667 0.18334 2.72 0.55 s1.5967 0.86332 2.23 1.49 s1.1333 1.3667 1.5 2.22 s0.55 1.76 0.55 2.72 z M63.192 20 l-2.12 -9.68 l-4.08 10.48 l-4.1 -10.48 l-2.1 9.68 l-1.44 0 l3.18 -14.5 l4.46 11.64 l4.46 -11.64 l3.16 14.5 l-1.42 0 z M88.24799999999999 20 l-2.12 -9.68 l-4.08 10.48 l-4.1 -10.48 l-2.1 9.68 l-1.44 0 l3.18 -14.5 l4.46 11.64 l4.46 -11.64 l3.16 14.5 l-1.42 0 z M110.604 15.5 c0 1.4729 -0.48002 2.633 -1.44 3.48 c-0.90666 0.8 -2.1134 1.2 -3.62 1.2 c-1.52 0 -2.7334 -0.4 -3.64 -1.2 c-0.96 -0.84704 -1.44 -2.007 -1.44 -3.48 l0 -9.1 l1.4 0 l0 9.3 c0 1.022 0.37 1.8086 1.11 2.36 c0.64422 0.48 1.5009 0.72 2.57 0.72 c1.6607 0 2.7806 -0.56 3.36 -1.68 c0.2 -0.38666 0.3 -0.85332 0.3 -1.4 l0 -9.3 l1.4 0 l0 9.1 z M124.1 9.98 l0 10.02 l-1.4 0 l0 -14.46 l7.64 10.86 l0 -10 l1.4 0 l0 14.44 z M145.536 20 l-1.4 0 l0 -13.6 l1.4 0 l0 13.6 z M170.41199999999998 15.84 c-0.50468 1.3015 -1.3313 2.3516 -2.48 3.15 c-1.1605 0.80666 -2.4338 1.21 -3.82 1.21 c-1.8845 0 -3.4912 -0.69334 -4.82 -2.08 c-1.3067 -1.3635 -1.96 -2.9968 -1.96 -4.9 c0 -0.94666 0.17334 -1.8433 0.52 -2.69 s0.82666 -1.59 1.44 -2.23 c1.3289 -1.3867 2.9356 -2.08 4.82 -2.08 c1.3921 0 2.6588 0.39666 3.8 1.19 c1.1414 0.79344 1.9681 1.8368 2.48 3.13 l-1.54 0 c-0.73576 -1.3489 -1.8324 -2.2388 -3.29 -2.67 c-0.47334 -0.14 -1.0233 -0.21 -1.65 -0.21 s-1.2667 0.15 -1.92 0.45 s-1.2233 0.70334 -1.71 1.21 c-1.0333 1.0758 -1.55 2.3758 -1.55 3.9 c0 1.5109 0.51666 2.8042 1.55 3.88 c1.063 1.1067 2.3396 1.66 3.83 1.66 c1.0133 0 1.9433 -0.26666 2.79 -0.8 s1.5033 -1.24 1.97 -2.12 l1.54 0 z M183.24839999999998 15 l4.9479 0 l-2.4684 -6.26 z M191.688 20 l-1.52 0 l-1.459 -3.7 l-5.9755 0 l-1.4655 3.7 l-1.52 0 l5.98 -14.54 z M199.84399999999997 7.66 l0 -1.3 l3.3 0 l1.4 0 l3.3 0 l0 1.3 l-3.3 0 l0 12.3 l-1.4 0 l0 -12.3 l-3.3 0 z M220.53999999999996 20 l-1.4 0 l0 -13.6 l1.4 0 l0 13.6 z M234.33599999999996 9.98 l0 10.02 l-1.4 0 l0 -14.46 l7.64 10.86 l0 -10 l1.4 0 l0 14.44 z M267.792 13.64 l-0.14002 0.84 c-0.29352 1.6543 -1.1013 3.0146 -2.4234 4.0808 s-2.8076 1.5993 -4.4566 1.5993 c-0.96 0 -1.8667 -0.18334 -2.72 -0.55 s-1.5967 -0.86666 -2.23 -1.5 s-1.1333 -1.3767 -1.5 -2.23 s-0.55 -1.7633 -0.55 -2.73 s0.18334 -1.8767 0.55 -2.73 s0.86666 -1.5967 1.5 -2.23 s1.3767 -1.1333 2.23 -1.5 s1.7133 -0.55 2.58 -0.55 c1.6281 0 3.0646 0.4616 4.3094 1.3848 s2.095 2.135 2.5506 3.6352 l-1.48 0 c-0.4297 -1.1011 -1.1192 -1.9797 -2.0684 -2.6358 s-2.0064 -0.98416 -3.1716 -0.98416 c-1.5467 0 -2.8666 0.54666 -3.96 1.64 s-1.64 2.4134 -1.64 3.96 c0 1.5389 0.54476 2.8604 1.6343 3.9642 s2.4114 1.6558 3.9658 1.6558 c1.233 0 2.3506 -0.35502 3.353 -1.0651 s1.7047 -1.655 2.107 -2.835 l-5.52 0 l0 -1.22 l7.08 0 z"></path></g></svg>