<svg xmlns="http://www.w3.org/2000/svg" xmlns:xlink="http://www.w3.org/1999/xlink" width="500" zoomAndPan="magnify" viewBox="0 0 375 374.999991" height="500" preserveAspectRatio="xMidYMid meet" version="1.0"><defs><g/><clipPath id="a7ff29afc5"><path d="M 66.242188 37.5 L 252 37.5 L 252 200 L 66.242188 200 Z M 66.242188 37.5 " clip-rule="nonzero"/></clipPath><clipPath id="38dfe95e10"><path d="M 142 71 L 308.492188 71 L 308.492188 234 L 142 234 Z M 142 71 " clip-rule="nonzero"/></clipPath></defs><rect x="-37.5" width="450" fill="#ffffff" y="-37.499999" height="449.999989" fill-opacity="1"/><rect x="-37.5" width="450" fill="#000c44" y="-37.499999" height="449.999989" fill-opacity="1"/><g fill="#ffffff" fill-opacity="1"><g transform="translate(12.810882, 312.014591)"><g><path d="M 29.59375 1.109375 C 25.8125 1.109375 22.296875 0.429688 19.046875 -0.921875 C 15.796875 -2.273438 12.960938 -4.171875 10.546875 -6.609375 C 8.140625 -9.046875 6.269531 -11.898438 4.9375 -15.171875 C 3.613281 -18.441406 2.953125 -21.972656 2.953125 -25.765625 C 2.953125 -29.597656 3.613281 -33.160156 4.9375 -36.453125 C 6.269531 -39.753906 8.140625 -42.625 10.546875 -45.0625 C 12.960938 -47.5 15.796875 -49.394531 19.046875 -50.75 C 22.296875 -52.101562 25.8125 -52.78125 29.59375 -52.78125 C 33.78125 -52.78125 37.617188 -51.914062 41.109375 -50.1875 C 44.609375 -48.46875 47.535156 -46.054688 49.890625 -42.953125 C 52.253906 -39.859375 53.832031 -36.269531 54.625 -32.1875 L 43.40625 -32.1875 C 42.375 -35.238281 40.625 -37.660156 38.15625 -39.453125 C 35.695312 -41.242188 32.84375 -42.140625 29.59375 -42.140625 C 26.695312 -42.140625 24.09375 -41.414062 21.78125 -39.96875 C 19.46875 -38.519531 17.632812 -36.5625 16.28125 -34.09375 C 14.925781 -31.632812 14.25 -28.859375 14.25 -25.765625 C 14.25 -22.660156 14.925781 -19.890625 16.28125 -17.453125 C 17.632812 -15.015625 19.46875 -13.082031 21.78125 -11.65625 C 24.09375 -10.226562 26.695312 -9.515625 29.59375 -9.515625 C 32.988281 -9.515625 35.914062 -10.472656 38.375 -12.390625 C 40.84375 -14.316406 42.539062 -16.925781 43.46875 -20.21875 L 54.765625 -20.21875 C 53.984375 -15.9375 52.421875 -12.195312 50.078125 -9 C 47.742188 -5.800781 44.816406 -3.316406 41.296875 -1.546875 C 37.773438 0.222656 33.875 1.109375 29.59375 1.109375 Z M 29.59375 1.109375 "/></g></g></g><g fill="#ffffff" fill-opacity="1"><g transform="translate(69.709481, 312.014591)"><g><path d="M 27.96875 -40.8125 C 32.5 -40.8125 36.066406 -39.3125 38.671875 -36.3125 C 41.285156 -33.3125 42.59375 -29.273438 42.59375 -24.203125 L 42.59375 0 L 31.8125 0 L 31.8125 -22.4375 C 31.8125 -25.394531 31.269531 -27.625 30.1875 -29.125 C 29.101562 -30.625 27.332031 -31.375 24.875 -31.375 C 22.21875 -31.375 20.0625 -30.445312 18.40625 -28.59375 C 16.757812 -26.75 15.9375 -24.207031 15.9375 -20.96875 L 15.9375 0 L 5.171875 0 L 5.171875 -54.25 L 15.9375 -54.25 L 15.9375 -36.171875 C 17.46875 -37.597656 19.265625 -38.726562 21.328125 -39.5625 C 23.398438 -40.394531 25.613281 -40.8125 27.96875 -40.8125 Z M 27.96875 -40.8125 "/></g></g></g><g fill="#ffffff" fill-opacity="1"><g transform="translate(117.014286, 312.014591)"><g><path d="M 37.71875 -39.9375 L 45.765625 -39.9375 L 45.765625 -0.078125 L 37.28125 -0.078125 L 36.390625 -3.609375 C 34.671875 -2.140625 32.710938 -0.984375 30.515625 -0.140625 C 28.328125 0.691406 25.976562 1.109375 23.46875 1.109375 C 19.488281 1.109375 15.921875 0.1875 12.765625 -1.65625 C 9.617188 -3.5 7.132812 -6.007812 5.3125 -9.1875 C 3.488281 -12.363281 2.578125 -15.96875 2.578125 -20 C 2.578125 -23.988281 3.488281 -27.566406 5.3125 -30.734375 C 7.132812 -33.910156 9.617188 -36.410156 12.765625 -38.234375 C 15.921875 -40.054688 19.488281 -40.96875 23.46875 -40.96875 C 26.03125 -40.96875 28.414062 -40.535156 30.625 -39.671875 C 32.84375 -38.804688 34.8125 -37.613281 36.53125 -36.09375 Z M 24.359375 -9.078125 C 26.421875 -9.078125 28.273438 -9.546875 29.921875 -10.484375 C 31.578125 -11.421875 32.867188 -12.710938 33.796875 -14.359375 C 34.734375 -16.003906 35.203125 -17.882812 35.203125 -20 C 35.203125 -22.070312 34.734375 -23.929688 33.796875 -25.578125 C 32.867188 -27.222656 31.578125 -28.523438 29.921875 -29.484375 C 28.273438 -30.441406 26.421875 -30.921875 24.359375 -30.921875 C 22.242188 -30.921875 20.375 -30.441406 18.75 -29.484375 C 17.125 -28.523438 15.84375 -27.222656 14.90625 -25.578125 C 13.96875 -23.929688 13.5 -22.070312 13.5 -20 C 13.5 -17.882812 13.96875 -16.015625 14.90625 -14.390625 C 15.84375 -12.765625 17.125 -11.472656 18.75 -10.515625 C 20.375 -9.554688 22.242188 -9.078125 24.359375 -9.078125 Z M 24.359375 -9.078125 "/></g></g></g><g fill="#ffffff" fill-opacity="1"><g transform="translate(167.9352, 312.014591)"><g><path d="M 24.65625 -9.59375 L 29.53125 -9.59375 L 29.53125 0 L 21.921875 0 C 17.546875 0 14.085938 -1.265625 11.546875 -3.796875 C 9.015625 -6.335938 7.75 -9.820312 7.75 -14.25 L 7.75 -31.21875 L 0.515625 -31.21875 L 0.515625 -33.515625 L 16.3125 -50.265625 L 18.3125 -50.265625 L 18.3125 -39.859375 L 29.296875 -39.859375 L 29.296875 -31.21875 L 18.53125 -31.21875 L 18.53125 -15.640625 C 18.53125 -13.722656 19.054688 -12.234375 20.109375 -11.171875 C 21.171875 -10.117188 22.6875 -9.59375 24.65625 -9.59375 Z M 24.65625 -9.59375 "/></g></g></g><g fill="#ffffff" fill-opacity="1"><g transform="translate(199.668528, 312.014591)"><g/></g></g><g fill="#ffffff" fill-opacity="1"><g transform="translate(217.306361, 312.014591)"><g><path d="M 38.671875 -51.671875 L 50.859375 -51.671875 L 31.375 0 L 20.8125 0 L 0.59375 -51.671875 L 12.921875 -51.671875 L 25.984375 -15.125 Z M 38.671875 -51.671875 "/></g></g></g><g fill="#ffffff" fill-opacity="1"><g transform="translate(269.112868, 312.014591)"><g><path d="M 23.40625 1.109375 C 19.65625 1.109375 16.363281 0.359375 13.53125 -1.140625 C 10.707031 -2.640625 8.519531 -4.726562 6.96875 -7.40625 C 5.425781 -10.09375 4.65625 -13.234375 4.65625 -16.828125 L 4.65625 -39.859375 L 15.421875 -39.859375 L 15.421875 -18.078125 C 15.421875 -15.222656 16.125 -12.992188 17.53125 -11.390625 C 18.9375 -9.796875 20.894531 -9 23.40625 -9 C 25.90625 -9 27.84375 -9.8125 29.21875 -11.4375 C 30.601562 -13.0625 31.296875 -15.273438 31.296875 -18.078125 L 31.296875 -39.859375 L 42.078125 -39.859375 L 42.078125 -16.828125 C 42.078125 -13.234375 41.300781 -10.09375 39.75 -7.40625 C 38.195312 -4.726562 36.019531 -2.640625 33.21875 -1.140625 C 30.414062 0.359375 27.144531 1.109375 23.40625 1.109375 Z M 23.40625 1.109375 "/></g></g></g><g fill="#ffffff" fill-opacity="1"><g transform="translate(315.827267, 312.014591)"><g><path d="M 43.84375 -20.078125 C 43.84375 -19.046875 43.769531 -17.988281 43.625 -16.90625 L 13.5 -16.90625 C 13.945312 -14.195312 15.03125 -12.113281 16.75 -10.65625 C 18.476562 -9.207031 20.644531 -8.484375 23.25 -8.484375 C 25.125 -8.484375 26.796875 -8.890625 28.265625 -9.703125 C 29.742188 -10.515625 30.878906 -11.632812 31.671875 -13.0625 L 43.03125 -13.0625 C 41.550781 -8.726562 39.039062 -5.28125 35.5 -2.71875 C 31.957031 -0.164062 27.875 1.109375 23.25 1.109375 C 19.3125 1.109375 15.78125 0.1875 12.65625 -1.65625 C 9.53125 -3.5 7.066406 -6.007812 5.265625 -9.1875 C 3.472656 -12.363281 2.578125 -15.941406 2.578125 -19.921875 C 2.578125 -23.910156 3.472656 -27.492188 5.265625 -30.671875 C 7.066406 -33.847656 9.53125 -36.359375 12.65625 -38.203125 C 15.78125 -40.046875 19.3125 -40.96875 23.25 -40.96875 C 27.332031 -40.96875 30.921875 -40.019531 34.015625 -38.125 C 37.117188 -36.226562 39.53125 -33.703125 41.25 -30.546875 C 42.976562 -27.398438 43.84375 -23.910156 43.84375 -20.078125 Z M 23.25 -31.8125 C 20.84375 -31.8125 18.8125 -31.144531 17.15625 -29.8125 C 15.507812 -28.488281 14.390625 -26.644531 13.796875 -24.28125 L 33.0625 -24.28125 C 31.488281 -29.300781 28.21875 -31.8125 23.25 -31.8125 Z M 23.25 -31.8125 "/></g></g></g><g clip-path="url(#a7ff29afc5)"><path fill="#5271ff" d="M 73.042969 37.5 L 245.066406 37.5 C 248.992188 37.5 251.855469 40.363281 251.855469 44.289062 L 251.855469 151.230469 C 251.855469 154.816406 248.992188 158.019531 245.066406 158.019531 L 169.601562 158.019531 L 169.601562 144.4375 L 238.277344 144.4375 L 238.277344 51.078125 L 79.832031 51.078125 L 79.832031 144.4375 L 84.828125 144.4375 C 88.414062 144.4375 91.617188 147.300781 91.617188 151.230469 L 91.617188 175.914062 L 119.503906 146.574219 C 120.570312 145.167969 122.703125 144.4375 124.886719 144.4375 L 142.054688 144.4375 L 142.054688 158.019531 L 127.746094 158.019531 L 89.820312 197.738281 C 86.960938 200.601562 82.691406 200.601562 80.171875 198.078125 C 78.765625 196.671875 78.039062 194.878906 78.039062 193.082031 L 78.039062 158.019531 L 73.042969 158.019531 C 69.453125 158.019531 66.253906 154.816406 66.253906 151.230469 L 66.253906 44.289062 C 66.253906 40.363281 69.453125 37.5 73.042969 37.5 Z M 73.042969 37.5 " fill-opacity="1" fill-rule="nonzero"/></g><g clip-path="url(#38dfe95e10)"><path fill="#5271ff" d="M 295.164062 85.078125 L 251.902344 85.078125 L 251.902344 71.496094 L 301.953125 71.496094 C 305.882812 71.496094 308.746094 74.699219 308.746094 78.289062 L 308.746094 185.226562 C 308.746094 188.816406 305.882812 192.015625 301.953125 192.015625 L 297.296875 192.015625 L 297.296875 227.082031 C 297.296875 228.875 296.570312 230.667969 295.164062 232.074219 C 292.304688 234.597656 288.035156 234.597656 285.511719 231.734375 L 247.585938 192.015625 L 149.234375 192.015625 C 145.304688 192.015625 142.105469 188.816406 142.105469 185.226562 L 142.105469 78.289062 C 142.105469 74.699219 145.304688 71.496094 149.234375 71.496094 L 224.695312 71.496094 L 224.695312 85.078125 L 156.023438 85.078125 L 156.023438 178.4375 L 250.449219 178.4375 C 252.582031 178.4375 254.378906 179.164062 255.832031 180.957031 L 283.71875 209.910156 L 283.71875 185.226562 C 283.71875 181.296875 286.582031 178.4375 290.507812 178.4375 L 295.164062 178.4375 Z M 295.164062 85.078125 " fill-opacity="1" fill-rule="nonzero"/></g><path fill="#5271ff" d="M 169.601562 106.171875 L 183.183594 106.171875 L 183.183594 119.753906 L 169.601562 119.753906 Z M 169.601562 106.171875 " fill-opacity="1" fill-rule="nonzero"/><path fill="#5271ff" d="M 190.359375 106.171875 L 203.9375 106.171875 L 203.9375 119.753906 L 190.359375 119.753906 Z M 190.359375 106.171875 " fill-opacity="1" fill-rule="nonzero"/><path fill="#5271ff" d="M 211.117188 106.171875 L 224.695312 106.171875 L 224.695312 119.753906 L 211.117188 119.753906 Z M 211.117188 106.171875 " fill-opacity="1" fill-rule="nonzero"/></svg>